<svg class="svg-data" enable-background="new 0 0 64 64" height="512" viewBox="0 0 64 64" width="512" xmlns="http://www.w3.org/2000/svg"><g><circle cx="32" cy="58" r="1"/><path d="m49.678 49.678c-.391.391-.391 1.024 0 1.414.391.391 1.024.391 1.414 0 .391-.391.391-1.024 0-1.414-.391-.391-1.024-.391-1.414 0z"/><circle cx="58" cy="32" r="1"/><path d="m51.092 14.322c.391-.391.391-1.024 0-1.414-.391-.391-1.024-.391-1.414 0-.391.391-.391 1.024 0 1.414.39.391 1.023.391 1.414 0z"/><circle cx="32" cy="6" r="1"/><path d="m14.322 14.322c.391-.391.391-1.024 0-1.414-.391-.391-1.024-.391-1.414 0-.391.391-.391 1.024 0 1.414.391.391 1.024.391 1.414 0z"/><circle cx="6" cy="32" r="1"/><path d="m12.908 49.678c-.391.391-.391 1.024 0 1.414.391.391 1.024.391 1.414 0 .391-.391.391-1.024 0-1.414-.39-.391-1.023-.391-1.414 0z"/><path d="m58.074 24.988c-.609-2.273-1.507-4.444-2.677-6.47l2.61-4.35-8.175-8.176-4.35 2.611c-2.026-1.169-4.197-2.067-6.47-2.677l-1.231-4.926h-11.562l-1.231 4.926c-2.273.609-4.444 1.507-6.47 2.677l-4.35-2.611-8.175 8.176 2.61 4.35c-1.169 2.026-2.067 4.197-2.677 6.47l-4.926 1.231v11.562l4.926 1.231c.609 2.273 1.507 4.444 2.677 6.47l-2.61 4.35 8.175 8.175 4.35-2.61c2.026 1.169 4.197 2.067 6.47 2.677l1.231 4.926h11.562l1.231-4.926c2.273-.609 4.444-1.507 6.47-2.677l4.35 2.61 8.175-8.175-2.61-4.35c1.169-2.026 2.067-4.197 2.677-6.47l4.926-1.231v-11.562zm2.926 11.231-4.575 1.144-.144.586c-.607 2.486-1.583 4.847-2.903 7.017l-.313.516 2.424 4.041-5.966 5.966-4.041-2.424-.516.313c-2.17 1.319-4.531 2.296-7.017 2.903l-.586.144-1.144 4.575h-8.438l-1.144-4.575-.586-.144c-2.486-.607-4.847-1.583-7.017-2.903l-.516-.313-4.041 2.424-5.966-5.966 2.424-4.041-.313-.516c-1.319-2.17-2.296-4.531-2.903-7.017l-.144-.586-4.575-1.144v-8.438l4.575-1.144.144-.586c.607-2.486 1.583-4.847 2.903-7.017l.313-.516-2.424-4.041 5.966-5.967 4.041 2.425.516-.314c2.17-1.319 4.531-2.296 7.017-2.903l.586-.144 1.144-4.574h8.438l1.144 4.575.586.144c2.486.607 4.847 1.583 7.017 2.903l.516.314 4.041-2.425 5.966 5.967-2.424 4.041.313.516c1.319 2.17 2.296 4.531 2.903 7.017l.144.586 4.575 1.143z"/><path d="m32 9c-12.682 0-23 10.318-23 23s10.318 23 23 23 23-10.318 23-23-10.318-23-23-23zm-7.739 29.894c-1.331-.34-2.261-1.53-2.261-2.894 0-1.654 1.346-3 3-3v-2c-1.456 0-2.757.636-3.672 1.633-1.396-.644-2.328-2.058-2.328-3.633 0-2.206 1.794-4 4-4s4 1.794 4 4h2c0-3.309-2.691-6-6-6-.272 0-.537.024-.799.06-.128-.337-.201-.693-.201-1.06 0-1.654 1.346-3 3-3s3 1.346 3 3h2c0-2.696-2.149-4.885-4.821-4.982.409-1.171 1.512-2.018 2.821-2.018 1.654 0 3 1.346 3 3v22c0 1.654-1.346 3-3 3s-3-1.346-3.003-2.931l.042-.977zm15.478-19.788c1.331.34 2.261 1.53 2.261 2.894 0 1.654-1.346 3-3 3v2c1.456 0 2.757-.636 3.672-1.633 1.396.644 2.328 2.058 2.328 3.633 0 2.206-1.794 4-4 4s-4-1.794-4-4h-2c0 3.309 2.691 6 6 6 .272 0 .537-.024.799-.06.128.337.201.693.201 1.06 0 1.654-1.346 3-3 3s-3-1.346-3-3h-2c0 2.696 2.149 4.885 4.821 4.982-.409 1.171-1.512 2.018-2.821 2.018-1.654 0-3-1.346-3-3v-22c0-1.654 1.346-3 3-3s3 1.346 3.003 2.931l-.042.977zm-6.739 33.843v-8.962c.837.632 1.873 1.013 3 1.013 2.549 0 4.634-1.924 4.938-4.392 1.797-.759 3.062-2.538 3.062-4.608 0-.57-.106-1.125-.291-1.653 1.949-.992 3.291-3.014 3.291-5.347 0-2.287-1.317-4.342-3.303-5.348.184-.52.303-1.07.303-1.652 0-2.019-1.215-3.809-3.034-4.584-.29-2.483-2.406-4.416-4.966-4.416-1.634 0-3.087.788-4 2.003-.913-1.215-2.366-2.003-4-2.003-2.549 0-4.634 1.924-4.938 4.392-1.797.759-3.062 2.538-3.062 4.608 0 .57.106 1.125.291 1.653-1.949.992-3.291 3.014-3.291 5.347 0 2.287 1.317 4.342 3.303 5.348-.184.52-.303 1.07-.303 1.652 0 2.019 1.215 3.809 3.034 4.584.29 2.483 2.406 4.416 4.966 4.416 1.127 0 2.163-.381 3-1.012v8.962c-11.114-.528-20-9.708-20-20.95 0-11.58 9.42-21 21-21s21 9.42 21 21c0 11.242-8.886 20.422-20 20.949z"/><path d="m22.556 46.138c-.522-.35-1.03-.731-1.508-1.135l-1.29 1.528c.536.452 1.103.878 1.686 1.269z"/><path d="m18.224 45.084 1.449-1.378c-.432-.454-.843-.938-1.223-1.438l-1.593 1.209c.424.56.884 1.1 1.367 1.607z"/><path d="m15.35 35.451-1.959.404c.142.687.324 1.374.541 2.039l1.901-.619c-.193-.596-.356-1.21-.483-1.824z"/><path d="m15 31.999-2 .002c0 .591.028 1.186.082 1.767l1.991-.184c-.048-.52-.073-1.054-.073-1.585z"/><path d="m14.698 39.86c.29.637.619 1.266.979 1.869l1.717-1.026c-.322-.539-.617-1.101-.876-1.671z"/></g></svg>
